<svg width="2677" height="2554" xmlns="http://www.w3.org/2000/svg" xmlns:xlink="http://www.w3.org/1999/xlink" xml:space="preserve" overflow="hidden"><defs><filter id="fx0" x="-10%" y="-10%" width="120%" height="120%" filterUnits="userSpaceOnUse" primitiveUnits="userSpaceOnUse"><feComponentTransfer color-interpolation-filters="sRGB"><feFuncR type="discrete" tableValues="0 0"/><feFuncG type="discrete" tableValues="0 0"/><feFuncB type="discrete" tableValues="0 0"/><feFuncA type="linear" slope="0.4" intercept="0"/></feComponentTransfer><feGaussianBlur stdDeviation="7.63889 7.63889"/></filter><filter id="fx1" x="-10%" y="-10%" width="120%" height="120%" filterUnits="userSpaceOnUse" primitiveUnits="userSpaceOnUse"><feComponentTransfer color-interpolation-filters="sRGB"><feFuncR type="discrete" tableValues="0 0"/><feFuncG type="discrete" tableValues="0 0"/><feFuncB type="discrete" tableValues="0 0"/><feFuncA type="linear" slope="0.4" intercept="0"/></feComponentTransfer><feGaussianBlur stdDeviation="7.63889 7.63889"/></filter><filter id="fx2" x="-10%" y="-10%" width="120%" height="120%" filterUnits="userSpaceOnUse" primitiveUnits="userSpaceOnUse"><feComponentTransfer color-interpolation-filters="sRGB"><feFuncR type="discrete" tableValues="0 0"/><feFuncG type="discrete" tableValues="0 0"/><feFuncB type="discrete" tableValues="0 0"/><feFuncA type="linear" slope="0.4" intercept="0"/></feComponentTransfer><feGaussianBlur stdDeviation="7.63889 7.63889"/></filter><filter id="fx3" x="-10%" y="-10%" width="120%" height="120%" filterUnits="userSpaceOnUse" primitiveUnits="userSpaceOnUse"><feComponentTransfer color-interpolation-filters="sRGB"><feFuncR type="discrete" tableValues="0 0"/><feFuncG type="discrete" tableValues="0 0"/><feFuncB type="discrete" tableValues="0 0"/><feFuncA type="linear" slope="0.4" intercept="0"/></feComponentTransfer><feGaussianBlur stdDeviation="7.63889 7.63889"/></filter><filter id="fx4" x="-10%" y="-10%" width="120%" height="120%" filterUnits="userSpaceOnUse" primitiveUnits="userSpaceOnUse"><feComponentTransfer color-interpolation-filters="sRGB"><feFuncR type="discrete" tableValues="0 0"/><feFuncG type="discrete" tableValues="0 0"/><feFuncB type="discrete" tableValues="0 0"/><feFuncA type="linear" slope="0.4" intercept="0"/></feComponentTransfer><feGaussianBlur stdDeviation="7.63889 7.63889"/></filter><filter id="fx5" x="-10%" y="-10%" width="120%" height="120%" filterUnits="userSpaceOnUse" primitiveUnits="userSpaceOnUse"><feComponentTransfer color-interpolation-filters="sRGB"><feFuncR type="discrete" tableValues="0 0"/><feFuncG type="discrete" tableValues="0 0"/><feFuncB type="discrete" tableValues="0 0"/><feFuncA type="linear" slope="0.4" intercept="0"/></feComponentTransfer><feGaussianBlur stdDeviation="7.63889 7.63889"/></filter><clipPath id="clip6"><rect x="-691" y="-1207" width="2677" height="2554"/></clipPath><clipPath id="clip7"><rect x="-7" y="-7" width="204" height="267"/></clipPath><clipPath id="clip8"><rect x="0" y="0" width="191" height="254"/></clipPath></defs><g clip-path="url(#clip6)" transform="translate(691 1207)"><rect x="-657" y="-1207" width="2643" height="2554" fill="#FFFFFF"/><text fill="#FFFFFF" font-family="Calibri,Calibri_MSFontService,sans-serif" font-weight="400" font-size="83" transform="matrix(1 0 0 1 -285.53 98)">MODULE II: Mixed</text><text fill="#FFFFFF" font-family="Calibri,Calibri_MSFontService,sans-serif" font-weight="400" font-size="83" transform="matrix(1 0 0 1 327.032 98)">-</text><text fill="#FFFFFF" font-family="Calibri,Calibri_MSFontService,sans-serif" font-weight="400" font-size="83" transform="matrix(1 0 0 1 352.241 98)">Frequency Interval</text><text fill="#FFFFFF" font-family="Calibri,Calibri_MSFontService,sans-serif" font-weight="400" font-size="83" transform="matrix(1 0 0 1 976.972 98)">-</text><text fill="#FFFFFF" font-family="Calibri,Calibri_MSFontService,sans-serif" font-weight="400" font-size="83" transform="matrix(1 0 0 1 1002.18 98)">Valued Forecasting</text><rect x="-623.5" y="-357.5" width="2570" height="1003" stroke="#F9CEB6" stroke-width="9.16667" stroke-miterlimit="8" stroke-dasharray="73.3333 27.5" fill="none"/><path d="M1193 402.167C1193 383.849 1207.85 369 1226.17 369L1774.83 369C1793.15 369 1808 383.849 1808 402.167L1808 534.833C1808 553.15 1793.15 568 1774.83 568L1226.17 568C1207.85 568 1193 553.15 1193 534.833Z" fill="#D1E4C6" fill-rule="evenodd"/><text font-family="Times New Roman,Times New Roman_MSFontService,sans-serif" font-weight="400" font-size="64" transform="matrix(1 0 0 1 1236.68 454)">Joint Estimation and </text><text font-family="Times New Roman,Times New Roman_MSFontService,sans-serif" font-weight="400" font-size="64" transform="matrix(1 0 0 1 1350.78 528)">Forecasting</text><path d="M1188-141.499C1188-162.21 1204.79-179 1225.5-179L1799.5-179C1820.21-179 1837-162.21 1837-141.499L1837 8.49945C1837 29.2105 1820.21 46.0001 1799.5 46.0001L1225.5 46.0001C1204.79 46.0001 1188 29.2105 1188 8.49945Z" fill="#CAD8EE" fill-rule="evenodd"/><text font-family="Times New Roman,Times New Roman_MSFontService,sans-serif" font-weight="400" font-size="64" transform="matrix(1 0 0 1 1307.51 -120)">Optimal Weight </text><text font-family="Times New Roman,Times New Roman_MSFontService,sans-serif" font-weight="400" font-size="64" transform="matrix(1 0 0 1 1285.74 -43)">Function and Lag </text><text font-family="Times New Roman,Times New Roman_MSFontService,sans-serif" font-weight="400" font-size="64" transform="matrix(1 0 0 1 1431.84 34)">orders</text><path d="M1132.5-184.984C1132.5-200.733 1145.27-213.5 1161.02-213.5L1860.98-213.5C1876.73-213.5 1889.5-200.733 1889.5-184.984L1889.5 569.984C1889.5 585.733 1876.73 598.5 1860.98 598.5L1161.02 598.5C1145.27 598.5 1132.5 585.733 1132.5 569.984Z" stroke="#000000" stroke-width="3.4375" stroke-linejoin="round" stroke-miterlimit="10" stroke-dasharray="13.75 10.3125" fill="none" fill-rule="evenodd"/><path d="M1158 132.001C1158 113.775 1172.78 99 1191 99L1831 99C1849.23 99 1864 113.775 1864 132.001L1864 263.999C1864 282.225 1849.23 297 1831 297L1191 297C1172.78 297 1158 282.225 1158 263.999Z" fill="#A1DCF6" fill-rule="evenodd"/><text font-family="Times New Roman,Times New Roman_MSFontService,sans-serif" font-weight="700" font-size="64" transform="matrix(1 0 0 1 1255.97 183)">Multi</text><text font-family="Times New Roman,Times New Roman_MSFontService,sans-serif" font-weight="700" font-size="64" transform="matrix(1 0 0 1 1408.94 183)">-</text><text font-family="Times New Roman,Times New Roman_MSFontService,sans-serif" font-weight="700" font-size="64" transform="matrix(1 0 0 1 1430.14 183)">Source Data </text><text font-family="Times New Roman,Times New Roman_MSFontService,sans-serif" font-weight="700" font-size="64" transform="matrix(1 0 0 1 1215.05 260)">Frequency Alignment</text><g clip-path="url(#clip7)" filter="url(#fx0)" transform="translate(1123 -83)"><g clip-path="url(#clip8)"><path d="M5.93327 0C84.1337 19.0841 136.94 68.1337 156.994 135.012L193.543 132.166 141.093 171.339 74.7592 138.36 112.495 137.104C96.2376 90.3986 52.2127 18.5819 0 4.18512L5.93327 0Z" fill="#F3627D" fill-rule="evenodd" transform="matrix(-0.947929 0.318483 0.318483 0.947929 165.773 22.5646)"/></g></g><path d="M5.81693 0C82.484 18.7099 134.255 66.7978 153.916 132.365L189.748 129.575 138.327 167.979 73.2933 135.647 110.289 134.416C94.3506 88.626 51.189 18.2176 0 4.10306L5.81693 0Z" fill="#F3627D" fill-rule="evenodd" transform="matrix(-0.947929 0.318483 0.318483 0.947929 1287.4 -58.384)"/><g filter="url(#fx1)" transform="translate(1744 173)"><g><path d="M80.947 24.0004C123.045 87.5242 123.437 166.114 86.1782 243.586L114.975 261.663 46.4463 270.356 23.7535 199.898 52.1809 220.223C76.5631 164.832 100.211 68.7876 73.3858 24.7408L80.947 24.0004Z" fill="#F3627D" fill-rule="evenodd"/></g></g><path d="M1824.72 199.416C1865.99 261.694 1866.38 338.743 1829.85 414.696L1858.08 432.418 1790.9 440.941 1768.65 371.865 1796.52 391.791C1820.42 337.486 1843.61 243.325 1817.31 200.142L1824.72 199.416Z" fill="#F3627D" fill-rule="evenodd"/><path d="M1080 1072.17C1080 1062.13 1088.13 1054 1098.17 1054L1283.83 1054C1293.87 1054 1302 1062.13 1302 1072.17L1302 1144.83C1302 1154.87 1293.87 1163 1283.83 1163L1098.17 1163C1088.13 1163 1080 1154.87 1080 1144.83Z" fill="#F7C1BC" fill-rule="evenodd"/><text font-family="Times New Roman,Times New Roman_MSFontService,sans-serif" font-weight="400" font-size="46" transform="matrix(1 0 0 1 1119.59 1125)">IMAPE</text><path d="M1350 918.167C1350 908.134 1358.13 900 1368.17 900L1552.83 900C1562.87 900 1571 908.134 1571 918.167L1571 990.833C1571 1000.87 1562.87 1009 1552.83 1009L1368.17 1009C1358.13 1009 1350 1000.87 1350 990.833Z" fill="#B7B8D9" fill-rule="evenodd"/><text font-family="Times New Roman,Times New Roman_MSFontService,sans-serif" font-weight="400" font-size="46" transform="matrix(1 0 0 1 1390.89 971)">IRMSE</text><path d="M1626 920.167C1626 910.134 1634.13 902 1644.17 902L1828.83 902C1838.87 902 1847 910.134 1847 920.167L1847 992.833C1847 1002.87 1838.87 1011 1828.83 1011L1644.17 1011C1634.13 1011 1626 1002.87 1626 992.833Z" fill="#DBDBDB" fill-rule="evenodd"/><text font-family="Times New Roman,Times New Roman_MSFontService,sans-serif" font-weight="400" font-size="46" transform="matrix(1 0 0 1 1669.25 973)">IMSPE</text><path d="M1350 1072.17C1350 1062.13 1358.13 1054 1368.17 1054L1553.83 1054C1563.87 1054 1572 1062.13 1572 1072.17L1572 1144.83C1572 1154.87 1563.87 1163 1553.83 1163L1368.17 1163C1358.13 1163 1350 1154.87 1350 1144.83Z" fill="#AFD9BA" fill-rule="evenodd"/><text font-family="Times New Roman,Times New Roman_MSFontService,sans-serif" font-weight="400" font-size="46" transform="matrix(1 0 0 1 1404.9 1125)">IARV</text><path d="M1080 918.167C1080 908.134 1088.13 900 1098.17 900L1283.83 900C1293.87 900 1302 908.134 1302 918.167L1302 990.833C1302 1000.87 1293.87 1009 1283.83 1009L1098.17 1009C1088.13 1009 1080 1000.87 1080 990.833Z" fill="#BAD9EF" fill-rule="evenodd"/><text font-family="Times New Roman,Times New Roman_MSFontService,sans-serif" font-weight="400" font-size="46" transform="matrix(1 0 0 1 1166.39 971)">UI</text><path d="M1628 1070.17C1628 1060.13 1636.13 1052 1646.17 1052L1831.83 1052C1841.87 1052 1850 1060.13 1850 1070.17L1850 1142.83C1850 1152.87 1841.87 1161 1831.83 1161L1646.17 1161C1636.13 1161 1628 1152.87 1628 1142.83Z" fill="#FAC495" fill-rule="evenodd"/><text font-family="Times New Roman,Times New Roman_MSFontService,sans-serif" font-weight="400" font-size="46" transform="matrix(1 0 0 1 1680.2 1123)">IMDE</text><rect x="1037.5" y="815.5" width="849" height="433" stroke="#FCB263" stroke-width="11.4583" stroke-miterlimit="8" stroke-dasharray="91.6667 34.375" fill="none"/><path d="M364.5-175.5C364.5-210.846 393.154-239.5 428.5-239.5L567.5-239.5C602.846-239.5 631.5-210.846 631.5-175.5L631.5-175.5C631.5-140.154 602.846-111.5 567.5-111.5L428.5-111.5C393.154-111.5 364.5-140.154 364.5-175.5Z" stroke="#000000" stroke-width="1.14583" stroke-miterlimit="8" fill="#EBE1F4" fill-rule="evenodd"/><text font-family="Times New Roman,Times New Roman_MSFontService,sans-serif" font-weight="700" font-size="73" transform="matrix(1 0 0 1 418.586 -153)">Daily</text><path d="M619.5-200.792 908.477-200.792 908.477-87.079 903.893-87.079 903.893-198.5 906.185-196.208 619.5-196.208ZM924.206-113.424 906.185-82.5309 888.164-113.424C887.526-114.518 887.895-115.921 888.989-116.558 890.082-117.196 891.485-116.827 892.123-115.734L908.164-88.2337 904.205-88.2337 920.247-115.734C920.885-116.827 922.288-117.196 923.381-116.558 924.474-115.921 924.844-114.518 924.206-113.424Z"/><rect x="-550.5" y="811.5" width="1452" height="460" stroke="#2E75B6" stroke-width="9.16667" stroke-miterlimit="8" stroke-dasharray="73.3333 27.5" fill="none"/><path d="M918.5 1020.02 973.615 1020.02 973.615 994.5 1016.5 1039 973.615 1083.5 973.615 1057.98 918.5 1057.98Z" stroke="#000000" stroke-width="4.58333" stroke-miterlimit="8" fill="#AFD9BA" fill-rule="evenodd"/><path d="M-521 886.62C-521 868.052-505.948 853-487.38 853L324.38 853C342.948 853 358 868.052 358 886.62L358 1007.38C358 1025.95 342.948 1041 324.38 1041L-487.38 1041C-505.948 1041-521 1025.95-521 1007.38Z" fill="#FFECA9" fill-rule="evenodd"/><text font-family="Times New Roman,Times New Roman_MSFontService,sans-serif" font-weight="400" font-size="64" transform="matrix(1 0 0 1 -425.739 932)">Transformer Encoder Self</text><text font-family="Times New Roman,Times New Roman_MSFontService,sans-serif" font-weight="400" font-size="64" transform="matrix(1 0 0 1 241.182 932)">-</text><text font-family="Times New Roman,Times New Roman_MSFontService,sans-serif" font-weight="400" font-size="64" transform="matrix(1 0 0 1 -372.435 1009)">Attention over Models</text><path d="M-463.197 1056-33.514 1056C-19.9753 1056-8.99997 1066.98-8.99997 1080.51L-8.99997 1192.2C-8.99997 1219.15-30.8499 1241-57.8032 1241L-487.486 1241C-501.025 1241-512 1230.02-512 1216.49L-512 1104.8C-512 1077.85-490.15 1056-463.197 1056Z" fill="#EBF1DF" fill-rule="evenodd"/><text font-family="Times New Roman,Times New Roman_MSFontService,sans-serif" font-weight="400" font-size="64" transform="matrix(1 0 0 1 -455.437 1133)">Context</text><text font-family="Times New Roman,Times New Roman_MSFontService,sans-serif" font-weight="400" font-size="64" transform="matrix(1 0 0 1 -252.052 1133)">-</text><text font-family="Times New Roman,Times New Roman_MSFontService,sans-serif" font-weight="400" font-size="64" transform="matrix(1 0 0 1 -230.854 1133)">Aware </text><text font-family="Times New Roman,Times New Roman_MSFontService,sans-serif" font-weight="400" font-size="64" transform="matrix(1 0 0 1 -461.189 1210)">Cross Attention</text><path d="M7.9999 1111.12C7.9999 1085.09 29.0946 1064 55.1162 1064L405.884 1064C431.905 1064 453 1085.09 453 1111.12L453 1197.88C453 1223.91 431.905 1245 405.884 1245L55.1162 1245C29.0946 1245 7.9999 1223.91 7.9999 1197.88Z" fill="#CAD8EE" fill-rule="evenodd"/><text font-family="Times New Roman,Times New Roman_MSFontService,sans-serif" font-weight="400" font-size="55" transform="matrix(1 0 0 1 50.8907 1142)">Dynamic Model </text><text font-family="Times New Roman,Times New Roman_MSFontService,sans-serif" font-weight="400" font-size="55" transform="matrix(1 0 0 1 116.387 1208)">Weighting</text><path d="M534.668 972.5 856.5 972.5 856.5 1173.33C856.5 1195.52 838.516 1213.5 816.333 1213.5L494.5 1213.5 494.5 1012.67C494.5 990.484 512.484 972.5 534.668 972.5Z" stroke="#000000" stroke-width="3.4375" stroke-linejoin="round" stroke-miterlimit="10" fill="#F0A4B1" fill-rule="evenodd"/><text font-family="Times New Roman,Times New Roman_MSFontService,sans-serif" font-weight="400" font-size="64" transform="matrix(1 0 0 1 609.251 1039)">Final </text><text font-family="Times New Roman,Times New Roman_MSFontService,sans-serif" font-weight="400" font-size="64" transform="matrix(1 0 0 1 548.522 1116)">Ensemble </text><text font-family="Times New Roman,Times New Roman_MSFontService,sans-serif" font-weight="400" font-size="64" transform="matrix(1 0 0 1 543.366 1193)">Prediction</text><g filter="url(#fx2)" transform="translate(-521 922)"><g><path d="M4.65776 0C66.047 12.1587 107.501 43.4085 123.244 86.0171L151.936 84.204 110.761 109.161 58.6877 88.1502 88.3111 87.3503C75.5488 57.5936 40.9883 11.8387 0 2.66637L4.65776 0Z" fill="#0088E8" fill-rule="evenodd" transform="matrix(-0.976381 0.216055 0.216055 0.976381 154.45 22.5497)"/></g></g><path d="M4.56643 0C64.752 11.9202 105.393 42.5574 120.828 84.3305L148.957 82.553 108.59 107.021 57.537 86.4218 86.5795 85.6376C74.0675 56.4643 40.1846 11.6066 0 2.61409L4.56643 0Z" fill="#0088E8" fill-rule="evenodd" transform="matrix(-0.976381 0.216055 0.216055 0.976381 -367.82 945.839)"/><g filter="url(#fx3)" transform="translate(-102 1021)"><g><path d="M24.7549 54.4299C62.7426 28.0076 103.956 23.922 140.37 40.7251L153.062 23.9004 149.947 61.3928 110.499 77.4185 124.327 60.6876C98.0387 49.9227 50.3722 41.5654 24.2966 58.5775L24.7549 54.4299Z" fill="#0088E8" fill-rule="evenodd"/></g></g><path d="M-75.9917 1075.36C-38.7488 1049.45 1.65609 1045.45 37.3564 1061.92L49.7993 1045.43 46.746 1082.18 8.07104 1097.89 21.6278 1081.49C-4.14487 1070.94-50.8766 1062.74-76.441 1079.42L-75.9917 1075.36Z" fill="#0088E8" fill-rule="evenodd"/><g filter="url(#fx4)" transform="translate(327 945)"><g><path d="M23.624 141.705C41.8563 91.0554 82.7787 58.5922 136.494 48.5832L135.707 24.3454 164.598 60.8152 135.848 102.971 136.367 78.0276C98.7629 86.5024 40.1799 112.081 26.6974 145.818L23.624 141.705Z" fill="#0088E8" fill-rule="evenodd"/></g></g><path d="M352.006 1085.59C369.881 1035.94 410.001 1004.11 462.663 994.299L461.891 970.536 490.215 1006.29 462.029 1047.62 462.538 1023.17C425.672 1031.47 368.237 1056.55 355.019 1089.63L352.006 1085.59Z" fill="#0088E8" fill-rule="evenodd"/><text font-family="Times New Roman,Times New Roman_MSFontService,sans-serif" font-weight="700" font-size="55" transform="matrix(1 0 0 1 450.52 864)">Transformer</text><text font-family="Times New Roman,Times New Roman_MSFontService,sans-serif" font-weight="700" font-size="55" transform="matrix(1 0 0 1 750.338 864)">-</text><text font-family="Times New Roman,Times New Roman_MSFontService,sans-serif" font-weight="700" font-size="55" transform="matrix(1 0 0 1 413.372 930)">based Integrator</text><rect x="-619.5" y="-1176.5" width="2573" height="787" stroke="#F9CEB6" stroke-width="9.16667" stroke-miterlimit="8" stroke-dasharray="73.3333 27.5" fill="none"/><path d="M-561-849.5C-561-977.354-416.388-1081-238-1081-59.6121-1081 84.9999-977.354 84.9999-849.5 84.9999-721.646-59.6121-618-238-618-416.388-618-561-721.646-561-849.5Z" fill="#E8C4DC" fill-rule="evenodd"/><path d="M-494.5-924C-494.5-957.413-461.145-984.5-420-984.5-378.855-984.5-345.5-957.413-345.5-924-345.5-890.587-378.855-863.5-420-863.5-461.145-863.5-494.5-890.587-494.5-924Z" stroke="#FFFFFF" stroke-width="4.58333" stroke-miterlimit="8" fill="#B7B8D9" fill-rule="evenodd"/><text font-family="Times New Roman,Times New Roman_MSFontService,sans-serif" font-weight="400" font-size="43" transform="matrix(1 0 0 1 -466.945 -897)">DXY</text><path d="M-316.5-784C-316.5-817.413-283.145-844.5-242-844.5-200.855-844.5-167.5-817.413-167.5-784-167.5-750.587-200.855-723.5-242-723.5-283.145-723.5-316.5-750.587-316.5-784Z" stroke="#FFFFFF" stroke-width="4.58333" stroke-miterlimit="8" fill="#B7B8D9" fill-rule="evenodd"/><text font-family="Times New Roman,Times New Roman_MSFontService,sans-serif" font-weight="400" font-size="36" transform="matrix(1 0 0 1 -299.127 -775)">LMECu</text><path d="M-495.5-785.5C-495.5-819.19-462.145-846.5-421-846.5-379.855-846.5-346.5-819.19-346.5-785.5-346.5-751.811-379.855-724.5-421-724.5-462.145-724.5-495.5-751.811-495.5-785.5Z" stroke="#FFFFFF" stroke-width="4.58333" stroke-miterlimit="8" fill="#B7B8D9" fill-rule="evenodd"/><text font-family="Times New Roman,Times New Roman_MSFontService,sans-serif" font-weight="400" font-size="43" transform="matrix(1 0 0 1 -470.995 -764)">T10Y</text><path d="M-133.5-898C-133.5-931.413-100.145-958.5-58.9999-958.5-17.8548-958.5 15.5-931.413 15.5-898 15.5-864.587-17.8548-837.5-58.9999-837.5-100.145-837.5-133.5-864.587-133.5-898Z" stroke="#FFFFFF" stroke-width="4.58333" stroke-miterlimit="8" fill="#B7B8D9" fill-rule="evenodd"/><text font-family="Times New Roman,Times New Roman_MSFontService,sans-serif" font-weight="400" font-size="43" transform="matrix(1 0 0 1 -113.779 -876)">SP500</text><path d="M-316.5-927C-316.5-962.07-283.145-990.5-242-990.5-200.855-990.5-167.5-962.07-167.5-927-167.5-891.93-200.855-863.5-242-863.5-283.145-863.5-316.5-891.93-316.5-927Z" stroke="#FFFFFF" stroke-width="4.58333" stroke-miterlimit="8" fill="#B7B8D9" fill-rule="evenodd"/><text font-family="Times New Roman,Times New Roman_MSFontService,sans-serif" font-weight="400" font-size="43" transform="matrix(1 0 0 1 -302.071 -907)">GOLD</text><path d="M-146.5-750.5C-146.5-784.742-112.474-812.5-70.5-812.5-28.5264-812.5 5.5-784.742 5.5-750.5 5.5-716.258-28.5264-688.5-70.5-688.5-112.474-688.5-146.5-716.258-146.5-750.5Z" stroke="#FFFFFF" stroke-width="4.58333" stroke-miterlimit="8" fill="#B7B8D9" fill-rule="evenodd"/><text font-family="Times New Roman,Times New Roman_MSFontService,sans-serif" font-weight="400" font-size="43" transform="matrix(1 0 0 1 -114.671 -762)">USD</text><text font-family="Times New Roman,Times New Roman_MSFontService,sans-serif" font-weight="400" font-size="43" transform="matrix(1 0 0 1 -117.237 -710)">CNY</text><text font-family="Times New Roman,Times New Roman_MSFontService,sans-serif" font-weight="400" font-size="64" transform="matrix(1 0 0 1 -368.661 -1003)">Structured</text><path d="M-519-545.5C-519-623.096-399.684-686-252.5-686-105.316-686 14.0001-623.096 14.0001-545.5 14.0001-467.904-105.316-405-252.5-405-399.684-405-519-467.904-519-545.5Z" fill="#F6A678" fill-rule="evenodd"/><text font-family="Times New Roman,Times New Roman_MSFontService,sans-serif" font-weight="400" font-size="57" transform="matrix(1 0 0 1 -397.879 -600)">Unstructured</text><path d="M-445.5-514C-445.5-540.233-419.98-561.5-388.5-561.5-357.02-561.5-331.5-540.233-331.5-514-331.5-487.766-357.02-466.5-388.5-466.5-419.98-466.5-445.5-487.766-445.5-514Z" stroke="#FFFFFF" stroke-width="4.58333" stroke-miterlimit="8" fill="#E4E0FF" fill-rule="evenodd"/><text font-family="Times New Roman,Times New Roman_MSFontService,sans-serif" font-weight="400" font-size="43" transform="matrix(1 0 0 1 -435.631 -493)">GPR</text><path d="M-299.5-496.5C-299.5-522.457-273.98-543.5-242.5-543.5-211.02-543.5-185.5-522.457-185.5-496.5-185.5-470.543-211.02-449.5-242.5-449.5-273.98-449.5-299.5-470.543-299.5-496.5Z" stroke="#FFFFFF" stroke-width="4.58333" stroke-miterlimit="8" fill="#E4E0FF" fill-rule="evenodd"/><text font-family="Times New Roman,Times New Roman_MSFontService,sans-serif" font-weight="400" font-size="43" transform="matrix(1 0 0 1 -288.286 -477)">EWS</text><path d="M-145.5-535C-145.5-561.234-119.756-582.5-88-582.5-56.2437-582.5-30.5001-561.234-30.5001-535-30.5001-508.766-56.2437-487.5-88-487.5-119.756-487.5-145.5-508.766-145.5-535Z" stroke="#FFFFFF" stroke-width="4.58333" stroke-miterlimit="8" fill="#E4E0FF" fill-rule="evenodd"/><text font-family="Times New Roman,Times New Roman_MSFontService,sans-serif" font-weight="400" font-size="43" transform="matrix(1 0 0 1 -130.676 -513)">GCS</text><rect x="176.5" y="-1035.5" width="390" height="621" stroke="#2F5597" stroke-width="6.875" stroke-miterlimit="8" stroke-dasharray="55 20.625" fill="none"/><text font-family="Times New Roman,Times New Roman_MSFontService,sans-serif" font-weight="700" font-size="47" transform="matrix(1 0 0 1 240.247 -963)">WTI_weekly</text><text font-family="Times New Roman,Times New Roman_MSFontService,sans-serif" font-weight="700" font-size="47" transform="matrix(1 0 0 1 232.816 -891)">Brent_weekly</text><path d="M223.5-710.5C223.5-705.529 243.647-701.5 268.5-701.5 293.353-701.5 313.5-705.529 313.5-710.5L313.5-692.5C313.5-687.529 293.353-683.5 268.5-683.5 243.647-683.5 223.5-687.529 223.5-692.5Z" fill="#FCEBDD" fill-rule="evenodd"/><path d="M223.5-710.5C223.5-715.471 243.647-719.5 268.5-719.5 293.353-719.5 313.5-715.471 313.5-710.5 313.5-705.529 293.353-701.5 268.5-701.5 243.647-701.5 223.5-705.529 223.5-710.5Z" fill="#FDF3EB" fill-rule="evenodd"/><path d="M313.5-710.5C313.5-705.529 293.353-701.5 268.5-701.5 243.647-701.5 223.5-705.529 223.5-710.5 223.5-715.471 243.647-719.5 268.5-719.5 293.353-719.5 313.5-715.471 313.5-710.5L313.5-692.5C313.5-687.529 293.353-683.5 268.5-683.5 243.647-683.5 223.5-687.529 223.5-692.5L223.5-710.5" stroke="#767171" stroke-width="4.58333" stroke-miterlimit="8" fill="none" fill-rule="evenodd"/><path d="M222.5-728.5C222.5-723.529 242.647-719.5 267.5-719.5 292.353-719.5 312.5-723.529 312.5-728.5L312.5-710.5C312.5-705.529 292.353-701.5 267.5-701.5 242.647-701.5 222.5-705.529 222.5-710.5Z" fill="#FCEBDD" fill-rule="evenodd"/><path d="M222.5-728.5C222.5-733.47 242.647-737.5 267.5-737.5 292.353-737.5 312.5-733.47 312.5-728.5 312.5-723.529 292.353-719.5 267.5-719.5 242.647-719.5 222.5-723.529 222.5-728.5Z" fill="#FDF3EB" fill-rule="evenodd"/><path d="M312.5-728.5C312.5-723.529 292.353-719.5 267.5-719.5 242.647-719.5 222.5-723.529 222.5-728.5 222.5-733.47 242.647-737.5 267.5-737.5 292.353-737.5 312.5-733.47 312.5-728.5L312.5-710.5C312.5-705.529 292.353-701.5 267.5-701.5 242.647-701.5 222.5-705.529 222.5-710.5L222.5-728.5" stroke="#767171" stroke-width="4.58333" stroke-miterlimit="8" fill="none" fill-rule="evenodd"/><path d="M222.5-744.5C222.5-739.529 242.647-735.5 267.5-735.5 292.353-735.5 312.5-739.529 312.5-744.5L312.5-726.5C312.5-721.529 292.353-717.5 267.5-717.5 242.647-717.5 222.5-721.529 222.5-726.5Z" fill="#FCEBDD" fill-rule="evenodd"/><path d="M222.5-744.5C222.5-749.471 242.647-753.5 267.5-753.5 292.353-753.5 312.5-749.471 312.5-744.5 312.5-739.529 292.353-735.5 267.5-735.5 242.647-735.5 222.5-739.529 222.5-744.5Z" fill="#FDF3EB" fill-rule="evenodd"/><path d="M312.5-744.5C312.5-739.529 292.353-735.5 267.5-735.5 242.647-735.5 222.5-739.529 222.5-744.5 222.5-749.471 242.647-753.5 267.5-753.5 292.353-753.5 312.5-749.471 312.5-744.5L312.5-726.5C312.5-721.529 292.353-717.5 267.5-717.5 242.647-717.5 222.5-721.529 222.5-726.5L222.5-744.5" stroke="#767171" stroke-width="4.58333" stroke-miterlimit="8" fill="none" fill-rule="evenodd"/><path d="M223.5-762.5C223.5-757.529 243.423-753.5 268-753.5 292.577-753.5 312.5-757.529 312.5-762.5L312.5-744.5C312.5-739.529 292.577-735.5 268-735.5 243.423-735.5 223.5-739.529 223.5-744.5Z" fill="#FCEBDD" fill-rule="evenodd"/><path d="M223.5-762.5C223.5-767.47 243.423-771.5 268-771.5 292.577-771.5 312.5-767.47 312.5-762.5 312.5-757.529 292.577-753.5 268-753.5 243.423-753.5 223.5-757.529 223.5-762.5Z" fill="#FDF3EB" fill-rule="evenodd"/><path d="M312.5-762.5C312.5-757.529 292.577-753.5 268-753.5 243.423-753.5 223.5-757.529 223.5-762.5 223.5-767.47 243.423-771.5 268-771.5 292.577-771.5 312.5-767.47 312.5-762.5L312.5-744.5C312.5-739.529 292.577-735.5 268-735.5 243.423-735.5 223.5-739.529 223.5-744.5L223.5-762.5" stroke="#767171" stroke-width="4.58333" stroke-miterlimit="8" fill="none" fill-rule="evenodd"/><path d="M223.5-780.5C223.5-775.53 243.647-771.5 268.5-771.5 293.353-771.5 313.5-775.53 313.5-780.5L313.5-762.5C313.5-757.529 293.353-753.5 268.5-753.5 243.647-753.5 223.5-757.529 223.5-762.5Z" fill="#FCEBDD" fill-rule="evenodd"/><path d="M223.5-780.5C223.5-785.471 243.647-789.5 268.5-789.5 293.353-789.5 313.5-785.471 313.5-780.5 313.5-775.53 293.353-771.5 268.5-771.5 243.647-771.5 223.5-775.53 223.5-780.5Z" fill="#FDF3EB" fill-rule="evenodd"/><path d="M313.5-780.5C313.5-775.53 293.353-771.5 268.5-771.5 243.647-771.5 223.5-775.53 223.5-780.5 223.5-785.471 243.647-789.5 268.5-789.5 293.353-789.5 313.5-785.471 313.5-780.5L313.5-762.5C313.5-757.529 293.353-753.5 268.5-753.5 243.647-753.5 223.5-757.529 223.5-762.5L223.5-780.5" stroke="#767171" stroke-width="4.58333" stroke-miterlimit="8" fill="none" fill-rule="evenodd"/><path d="M223.5-796.5C223.5-791.529 243.647-787.5 268.5-787.5 293.353-787.5 313.5-791.529 313.5-796.5L313.5-778.5C313.5-773.53 293.353-769.5 268.5-769.5 243.647-769.5 223.5-773.53 223.5-778.5Z" fill="#FCEBDD" fill-rule="evenodd"/><path d="M223.5-796.5C223.5-801.47 243.647-805.5 268.5-805.5 293.353-805.5 313.5-801.47 313.5-796.5 313.5-791.529 293.353-787.5 268.5-787.5 243.647-787.5 223.5-791.529 223.5-796.5Z" fill="#FDF3EB" fill-rule="evenodd"/><path d="M313.5-796.5C313.5-791.529 293.353-787.5 268.5-787.5 243.647-787.5 223.5-791.529 223.5-796.5 223.5-801.47 243.647-805.5 268.5-805.5 293.353-805.5 313.5-801.47 313.5-796.5L313.5-778.5C313.5-773.53 293.353-769.5 268.5-769.5 243.647-769.5 223.5-773.53 223.5-778.5L223.5-796.5" stroke="#767171" stroke-width="4.58333" stroke-miterlimit="8" fill="none" fill-rule="evenodd"/><path d="M223.5-814.5C223.5-809.53 243.423-805.5 268-805.5 292.577-805.5 312.5-809.53 312.5-814.5L312.5-796.5C312.5-791.53 292.577-787.5 268-787.5 243.423-787.5 223.5-791.53 223.5-796.5Z" fill="#FCEBDD" fill-rule="evenodd"/><path d="M223.5-814.5C223.5-819.471 243.423-823.5 268-823.5 292.577-823.5 312.5-819.471 312.5-814.5 312.5-809.53 292.577-805.5 268-805.5 243.423-805.5 223.5-809.53 223.5-814.5Z" fill="#FDF3EB" fill-rule="evenodd"/><path d="M312.5-814.5C312.5-809.53 292.577-805.5 268-805.5 243.423-805.5 223.5-809.53 223.5-814.5 223.5-819.471 243.423-823.5 268-823.5 292.577-823.5 312.5-819.471 312.5-814.5L312.5-796.5C312.5-791.53 292.577-787.5 268-787.5 243.423-787.5 223.5-791.53 223.5-796.5L223.5-814.5" stroke="#767171" stroke-width="4.58333" stroke-miterlimit="8" fill="none" fill-rule="evenodd"/><path d="M220.5-484.5C220.5-478.977 242.886-474.5 270.5-474.5 298.114-474.5 320.5-478.977 320.5-484.5L320.5-464.5C320.5-458.977 298.114-454.5 270.5-454.5 242.886-454.5 220.5-458.977 220.5-464.5Z" fill="#FFF3CD" fill-rule="evenodd"/><path d="M220.5-484.5C220.5-490.023 242.886-494.5 270.5-494.5 298.114-494.5 320.5-490.023 320.5-484.5 320.5-478.977 298.114-474.5 270.5-474.5 242.886-474.5 220.5-478.977 220.5-484.5Z" fill="#FFF8E1" fill-rule="evenodd"/><path d="M320.5-484.5C320.5-478.977 298.114-474.5 270.5-474.5 242.886-474.5 220.5-478.977 220.5-484.5 220.5-490.023 242.886-494.5 270.5-494.5 298.114-494.5 320.5-490.023 320.5-484.5L320.5-464.5C320.5-458.977 298.114-454.5 270.5-454.5 242.886-454.5 220.5-458.977 220.5-464.5L220.5-484.5" stroke="#767171" stroke-width="4.58333" stroke-miterlimit="8" fill="none" fill-rule="evenodd"/><path d="M219.5-503.5C219.5-497.977 241.886-493.5 269.5-493.5 297.114-493.5 319.5-497.977 319.5-503.5L319.5-483.5C319.5-477.977 297.114-473.5 269.5-473.5 241.886-473.5 219.5-477.977 219.5-483.5Z" fill="#FFF3CD" fill-rule="evenodd"/><path d="M219.5-503.5C219.5-509.023 241.886-513.5 269.5-513.5 297.114-513.5 319.5-509.023 319.5-503.5 319.5-497.977 297.114-493.5 269.5-493.5 241.886-493.5 219.5-497.977 219.5-503.5Z" fill="#FFF8E1" fill-rule="evenodd"/><path d="M319.5-503.5C319.5-497.977 297.114-493.5 269.5-493.5 241.886-493.5 219.5-497.977 219.5-503.5 219.5-509.023 241.886-513.5 269.5-513.5 297.114-513.5 319.5-509.023 319.5-503.5L319.5-483.5C319.5-477.977 297.114-473.5 269.5-473.5 241.886-473.5 219.5-477.977 219.5-483.5L219.5-503.5" stroke="#767171" stroke-width="4.58333" stroke-miterlimit="8" fill="none" fill-rule="evenodd"/><path d="M219.5-522.5C219.5-516.977 241.886-512.5 269.5-512.5 297.114-512.5 319.5-516.977 319.5-522.5L319.5-502.5C319.5-496.977 297.114-492.5 269.5-492.5 241.886-492.5 219.5-496.977 219.5-502.5Z" fill="#FFF3CD" fill-rule="evenodd"/><path d="M219.5-522.5C219.5-528.023 241.886-532.5 269.5-532.5 297.114-532.5 319.5-528.023 319.5-522.5 319.5-516.977 297.114-512.5 269.5-512.5 241.886-512.5 219.5-516.977 219.5-522.5Z" fill="#FFF8E1" fill-rule="evenodd"/><path d="M319.5-522.5C319.5-516.977 297.114-512.5 269.5-512.5 241.886-512.5 219.5-516.977 219.5-522.5 219.5-528.023 241.886-532.5 269.5-532.5 297.114-532.5 319.5-528.023 319.5-522.5L319.5-502.5C319.5-496.977 297.114-492.5 269.5-492.5 241.886-492.5 219.5-496.977 219.5-502.5L219.5-522.5" stroke="#767171" stroke-width="4.58333" stroke-miterlimit="8" fill="none" fill-rule="evenodd"/><text font-family="Times New Roman,Times New Roman_MSFontService,sans-serif" font-weight="700" font-size="55" transform="matrix(1 0 0 1 333.195 -782)">Training</text><text font-family="Times New Roman,Times New Roman_MSFontService,sans-serif" font-weight="700" font-size="55" transform="matrix(1 0 0 1 403.068 -716)">set</text><text font-family="Times New Roman,Times New Roman_MSFontService,sans-serif" font-weight="700" font-size="55" transform="matrix(1 0 0 1 348.959 -518)">Testing</text><text font-family="Times New Roman,Times New Roman_MSFontService,sans-serif" font-weight="700" font-size="55" transform="matrix(1 0 0 1 401.438 -452)">set</text><text font-family="Times New Roman,Times New Roman_MSFontService,sans-serif" font-weight="700" font-size="64" transform="matrix(1 0 0 1 253.805 -607)">7  </text><text font-family="DengXian,DengXian_MSFontService,sans-serif" font-weight="700" font-size="64" transform="matrix(1 0 0 1 317.972 -607)">：</text><text font-family="Times New Roman,Times New Roman_MSFontService,sans-serif" font-weight="700" font-size="64" transform="matrix(1 0 0 1 382.139 -607)">3</text><path d="M24.4999-681.808 114.37-681.808 114.37-704.5 149.5-665 114.37-625.5 114.37-648.192 24.4999-648.192Z" stroke="#000000" stroke-width="4.58333" stroke-miterlimit="8" fill="#AFD9BA" fill-rule="evenodd"/><text font-family="Times New Roman,Times New Roman_MSFontService,sans-serif" font-weight="700" font-size="110" transform="matrix(1 0 0 1 1688.95 -839)">. . .</text><rect x="1614" y="-939" width="291" height="60.0002" fill="#8DC3E2"/><text font-family="Times New Roman,Times New Roman_MSFontService,sans-serif" font-weight="400" font-size="50" transform="matrix(1 0 0 1 1683.66 -890)">SPCA1</text><rect x="1614" y="-831" width="291" height="59.9998" fill="#8DC3E2"/><text font-family="Times New Roman,Times New Roman_MSFontService,sans-serif" font-weight="400" font-size="50" transform="matrix(1 0 0 1 1683.66 -782)">SPCA5</text><path d="M1581-938 1581-776.871" stroke="#000000" stroke-width="8.02083" stroke-miterlimit="8" fill="none" fill-rule="evenodd"/><rect x="1259" y="-942" width="290" height="59.9998" fill="#8DC3E2"/><text font-family="Times New Roman,Times New Roman_MSFontService,sans-serif" font-weight="400" font-size="50" transform="matrix(1 0 0 1 1328.08 -893)">SPCA1</text><text font-family="Times New Roman,Times New Roman_MSFontService,sans-serif" font-weight="700" font-size="110" transform="matrix(1 0 0 1 1332.66 -848)">. . .</text><rect x="1259" y="-834" width="290" height="59.9998" fill="#8DC3E2"/><text font-family="Times New Roman,Times New Roman_MSFontService,sans-serif" font-weight="400" font-size="50" transform="matrix(1 0 0 1 1328.08 -786)">SPCA</text><text font-family="Times New Roman,Times New Roman_MSFontService,sans-serif" font-weight="400" font-size="50" transform="matrix(1 0 0 1 1454.69 -786)">5</text><text font-family="Times New Roman,Times New Roman_MSFontService,sans-serif" font-weight="400" font-size="64" transform="matrix(1 0 0 1 1302.44 -947)">Weekly</text><text font-family="Times New Roman,Times New Roman_MSFontService,sans-serif" font-weight="400" font-size="64" transform="matrix(1 0 0 1 1497.26 -947)">-</text><text font-family="Times New Roman,Times New Roman_MSFontService,sans-serif" font-weight="400" font-size="64" transform="matrix(1 0 0 1 1518.46 -947)">WTI &amp; Brent</text><text font-family="Times New Roman,Times New Roman_MSFontService,sans-serif" font-weight="700" font-size="110" transform="matrix(1 0 0 1 1333.58 -542)">. . .</text><rect x="1259" y="-640" width="290" height="59.9998" fill="#8DC3E2"/><text font-family="Times New Roman,Times New Roman_MSFontService,sans-serif" font-weight="400" font-size="50" transform="matrix(1 0 0 1 1327.74 -592)">SPCA1</text><rect x="1259" y="-533" width="290" height="59.9998" fill="#8DC3E2"/><text font-family="Times New Roman,Times New Roman_MSFontService,sans-serif" font-weight="400" font-size="50" transform="matrix(1 0 0 1 1327.74 -484)">SPCA5</text><text font-family="Times New Roman,Times New Roman_MSFontService,sans-serif" font-weight="700" font-size="110" transform="matrix(1 0 0 1 1683.88 -546)">. . .</text><rect x="1616" y="-643" width="290" height="59.9998" fill="#8DC3E2"/><text font-family="Times New Roman,Times New Roman_MSFontService,sans-serif" font-weight="400" font-size="50" transform="matrix(1 0 0 1 1684.92 -594)">SPCA1</text><rect x="1616" y="-535" width="290" height="59.9998" fill="#8DC3E2"/><text font-family="Times New Roman,Times New Roman_MSFontService,sans-serif" font-weight="400" font-size="50" transform="matrix(1 0 0 1 1684.92 -486)">SPCA5</text><path d="M1582-642 1582-480.871" stroke="#000000" stroke-width="8.02083" stroke-miterlimit="8" fill="none" fill-rule="evenodd"/><text font-family="Times New Roman,Times New Roman_MSFontService,sans-serif" font-weight="400" font-size="64" transform="matrix(1 0 0 1 1324.59 -650)">Daily</text><text font-family="Times New Roman,Times New Roman_MSFontService,sans-serif" font-weight="400" font-size="64" transform="matrix(1 0 0 1 1467.25 -650)">-</text><text font-family="Times New Roman,Times New Roman_MSFontService,sans-serif" font-weight="400" font-size="64" transform="matrix(1 0 0 1 1488.45 -650)">WTI &amp; Brent</text><path d="M761-970.125C761-962.462 839.798-956.25 937-956.25 1034.2-956.25 1113-962.462 1113-970.125L1113-886.875C1113-879.212 1034.2-873 937-873 839.798-873 761-879.212 761-886.875Z" fill="#A8C0E5" fill-rule="evenodd"/><path d="M761-970.125C761-977.788 839.798-984 937-984 1034.2-984 1113-977.788 1113-970.125 1113-962.462 1034.2-956.25 937-956.25 839.798-956.25 761-962.462 761-970.125Z" fill="#CBD9EF" fill-rule="evenodd"/><text font-family="Times New Roman,Times New Roman_MSFontService,sans-serif" font-weight="400" font-size="64" transform="matrix(1 0 0 1 867.754 -887)">Filter </text><path d="M750-753.75C750-745.88 833.947-739.5 937.5-739.5 1041.05-739.5 1125-745.88 1125-753.75L1125-668.25C1125-660.38 1041.05-654 937.5-654 833.947-654 750-660.38 750-668.25Z" fill="#A8C0E5" fill-rule="evenodd"/><path d="M750-753.75C750-761.62 833.947-768 937.5-768 1041.05-768 1125-761.62 1125-753.75 1125-745.88 1041.05-739.5 937.5-739.5 833.947-739.5 750-745.88 750-753.75Z" fill="#CBD9EF" fill-rule="evenodd"/><text font-family="Times New Roman,Times New Roman_MSFontService,sans-serif" font-weight="400" font-size="64" transform="matrix(1 0 0 1 798.852 -669)">Embedded </text><path d="M742-554C742-546.268 826.171-540 930-540 1033.83-540 1118-546.268 1118-554L1118-470C1118-462.268 1033.83-456 930-456 826.171-456 742-462.268 742-470Z" fill="#A8C0E5" fill-rule="evenodd"/><path d="M742-554C742-561.732 826.171-568 930-568 1033.83-568 1118-561.732 1118-554 1118-546.268 1033.83-540 930-540 826.171-540 742-546.268 742-554Z" fill="#CBD9EF" fill-rule="evenodd"/><text font-family="Times New Roman,Times New Roman_MSFontService,sans-serif" font-weight="400" font-size="64" transform="matrix(1 0 0 1 815.955 -476)">Wrapper </text><path d="M618.5-583.247 678.871-583.247 678.871-608.5 703.5-574 678.871-539.5 678.871-564.753 618.5-564.753Z" stroke="#000000" stroke-width="4.58333" stroke-miterlimit="8" fill="#B7B8D9" fill-rule="evenodd"/><path d="M614.5-733.587 671.301-733.587 671.301-762.5 699.5-723 671.301-683.5 671.301-712.412 614.5-712.412Z" stroke="#000000" stroke-width="4.58333" stroke-miterlimit="8" fill="#B7B8D9" fill-rule="evenodd"/><path d="M618.5-866.515 678.157-866.515 678.157-892.5 703.5-857 678.157-821.5 678.157-847.485 618.5-847.485Z" stroke="#000000" stroke-width="4.58333" stroke-miterlimit="8" fill="#B7B8D9" fill-rule="evenodd"/><path d="M1162.5-585.32 1221.02-585.32 1221.02-613.5 1248.5-575 1221.02-536.5 1221.02-564.681 1162.5-564.681Z" stroke="#000000" stroke-width="4.58333" stroke-miterlimit="8" fill="#B7B8D9" fill-rule="evenodd"/><path d="M1161.5-729.588 1218.3-729.588 1218.3-758.5 1246.5-719 1218.3-679.5 1218.3-708.413 1161.5-708.413Z" stroke="#000000" stroke-width="4.58333" stroke-miterlimit="8" fill="#B7B8D9" fill-rule="evenodd"/><path d="M1164.5-871.881 1224.51-871.881 1224.51-897.5 1249.5-862.5 1224.51-827.5 1224.51-853.119 1164.5-853.119Z" stroke="#000000" stroke-width="4.58333" stroke-miterlimit="8" fill="#B7B8D9" fill-rule="evenodd"/><text font-family="Times New Roman,Times New Roman_MSFontService,sans-serif" font-weight="700" font-size="83" transform="matrix(1 0 0 1 -403.092 -269)">MODULE II: Mixed</text><text font-family="Times New Roman,Times New Roman_MSFontService,sans-serif" font-weight="700" font-size="83" transform="matrix(1 0 0 1 325.658 -269)">-</text><text font-family="Times New Roman,Times New Roman_MSFontService,sans-serif" font-weight="700" font-size="83" transform="matrix(1 0 0 1 353.158 -269)">Frequency Interval</text><text font-family="Times New Roman,Times New Roman_MSFontService,sans-serif" font-weight="700" font-size="83" transform="matrix(1 0 0 1 1032.29 -269)">-</text><text font-family="Times New Roman,Times New Roman_MSFontService,sans-serif" font-weight="700" font-size="83" transform="matrix(1 0 0 1 1059.79 -269)">Valued Forecasting</text><rect x="479.5" y="-36.4999" width="198" height="559" stroke="#BF9000" stroke-width="11.4583" stroke-miterlimit="8" fill="none"/><rect x="-497.5" y="-36.4999" width="164" height="559" stroke="#BF9000" stroke-width="11.4583" stroke-miterlimit="8" fill="none"/><rect x="-333.5" y="-36.4999" width="164" height="559" stroke="#BF9000" stroke-width="11.4583" stroke-miterlimit="8" fill="none"/><rect x="-170.5" y="-36.4999" width="164" height="559" stroke="#BF9000" stroke-width="11.4583" stroke-miterlimit="8" fill="none"/><rect x="677.5" y="-36.4999" width="279" height="559" stroke="#BF9000" stroke-width="11.4583" stroke-miterlimit="8" fill="none"/><path d="M-426.5 223.5-227.5 223.5-227.5 313.5C-227.5 323.441-235.559 331.5-245.5 331.5L-444.5 331.5-444.5 241.5C-444.5 231.559-436.441 223.5-426.5 223.5Z" stroke="#000000" stroke-width="3.4375" stroke-miterlimit="8" fill="#EBF1DF" fill-rule="evenodd"/><text font-family="Times New Roman,Times New Roman_MSFontService,sans-serif" font-weight="400" font-size="55" transform="matrix(1 0 0 1 -393.116 297)">MLP</text><path d="M-278.5 58.4999-15.4999 58.4999-15.4999 148.499C-15.4999 158.441-23.559 166.5-33.5004 166.5L-296.5 166.5-296.5 76.5004C-296.5 66.559-288.441 58.4999-278.5 58.4999Z" stroke="#000000" stroke-width="3.4375" stroke-miterlimit="8" fill="#EBF1DF" fill-rule="evenodd"/><text font-family="Times New Roman,Times New Roman_MSFontService,sans-serif" font-weight="400" font-size="55" transform="matrix(1 0 0 1 -255.998 132)">BiLSTM</text><rect x="-7.50007" y="-36.4999" width="164" height="559" stroke="#BF9000" stroke-width="11.4583" stroke-miterlimit="8" fill="none"/><rect x="152.5" y="-36.4999" width="164" height="559" stroke="#BF9000" stroke-width="11.4583" stroke-miterlimit="8" fill="none"/><rect x="316.5" y="-36.4999" width="164" height="559" stroke="#BF9000" stroke-width="11.4583" stroke-miterlimit="8" fill="none"/><path d="M-86.4996 223.5 102.5 223.5 102.5 313.499C102.5 323.441 94.4409 331.5 84.4995 331.5L-104.5 331.5-104.5 241.5C-104.5 231.559-96.4409 223.5-86.4996 223.5Z" stroke="#000000" stroke-width="3.4375" stroke-miterlimit="8" fill="#EBF1DF" fill-rule="evenodd"/><text font-family="Times New Roman,Times New Roman_MSFontService,sans-serif" font-weight="400" font-size="55" transform="matrix(1 0 0 1 -59.2024 297)">GRU</text><path d="M79.5003 58.4999 279.5 58.4999 279.5 148.5C279.5 158.441 271.441 166.5 261.5 166.5L61.5 166.5 61.5 76.5002C61.5 66.5589 69.559 58.4999 79.5003 58.4999Z" stroke="#000000" stroke-width="3.4375" stroke-miterlimit="8" fill="#EBF1DF" fill-rule="evenodd"/><text font-family="Times New Roman,Times New Roman_MSFontService,sans-serif" font-weight="400" font-size="55" transform="matrix(1 0 0 1 112.026 132)">RNN</text><path d="M264.5 223.5 437.5 223.5 437.5 313.5C437.5 323.441 429.441 331.5 419.5 331.5L246.5 331.5 246.5 241.5C246.5 231.559 254.559 223.5 264.5 223.5Z" stroke="#000000" stroke-width="3.4375" stroke-miterlimit="8" fill="#EBF1DF" fill-rule="evenodd"/><text font-family="Times New Roman,Times New Roman_MSFontService,sans-serif" font-weight="400" font-size="55" transform="matrix(1 0 0 1 288.304 297)">SVR</text><path d="M395.5 58.4999 598.5 58.4999 598.5 148.5C598.5 158.441 590.441 166.5 580.5 166.5L377.5 166.5 377.5 76.5002C377.5 66.5589 385.559 58.4999 395.5 58.4999Z" stroke="#000000" stroke-width="3.4375" stroke-miterlimit="8" fill="#EBF1DF" fill-rule="evenodd"/><text font-family="Times New Roman,Times New Roman_MSFontService,sans-serif" font-weight="400" font-size="55" transform="matrix(1 0 0 1 429.656 132)">XGB</text><path d="M533.5 247.5 847.5 247.5 847.5 337.5C847.5 347.441 839.441 355.5 829.499 355.5L515.5 355.5 515.5 265.5C515.5 255.559 523.559 247.5 533.5 247.5Z" stroke="#000000" stroke-width="3.4375" stroke-miterlimit="8" fill="#EBF1DF" fill-rule="evenodd"/><text font-family="Times New Roman,Times New Roman_MSFontService,sans-serif" font-weight="400" font-size="55" transform="matrix(1 0 0 1 558.694 321)">LightGBM</text><path d="M-565.5 58.4999-333.5 58.4999-333.5 148.5C-333.5 158.441-341.559 166.5-351.5 166.5L-583.5 166.5-583.5 76.5003C-583.5 66.559-575.441 58.4999-565.5 58.4999Z" stroke="#000000" stroke-width="3.4375" stroke-miterlimit="8" fill="#EBF1DF" fill-rule="evenodd"/><text font-family="Times New Roman,Times New Roman_MSFontService,sans-serif" font-weight="400" font-size="55" transform="matrix(1 0 0 1 -532.407 132)">LSTM</text><path d="M-365.499 451.5 308.5 451.5 308.5 546.499C308.5 556.993 299.993 565.5 289.499 565.5L-384.5 565.5-384.5 470.501C-384.5 460.007-375.993 451.5-365.499 451.5Z" stroke="#000000" stroke-width="3.4375" stroke-miterlimit="8" fill="#DFCBED" fill-rule="evenodd"/><text font-family="Times New Roman,Times New Roman_MSFontService,sans-serif" font-weight="400" font-size="64" transform="matrix(1 0 0 1 -133.105 532)">Results</text><text font-family="Times New Roman,Times New Roman_MSFontService,sans-serif" font-weight="400" font-size="73" transform="matrix(1 0 0 1 -558.92 -171)">Weekly Frequency</text><text font-family="Times New Roman,Times New Roman_MSFontService,sans-serif" font-weight="400" font-size="83" transform="matrix(1 0 0 1 -56.9531 -65)">WTI&amp;Brent</text><path d="M753.001-82.5 1095.5-82.5 1095.5 99.9992C1095.5 120.158 1079.16 136.5 1059 136.5L716.5 136.5 716.5-45.9992C716.5-66.1581 732.842-82.5 753.001-82.5Z" stroke="#000000" stroke-width="3.4375" stroke-miterlimit="8" fill="#FDC986" fill-rule="evenodd"/><text font-family="Times New Roman,Times New Roman_MSFontService,sans-serif" font-weight="700" font-size="83" transform="matrix(1 0 0 1 852.853 8)">M</text><text font-family="Times New Roman,Times New Roman_MSFontService,sans-serif" font-weight="700" font-size="83" transform="matrix(1 0 0 1 930.77 8)">-</text><text font-family="Times New Roman,Times New Roman_MSFontService,sans-serif" font-weight="700" font-size="83" transform="matrix(1 0 0 1 768.061 107)">MIDAS</text><g filter="url(#fx5)" transform="translate(969 -212)"><g><path d="M24.11 200.214C45.5823 126.856 100.77 77.319 176.017 58.5062L172.815 24.2202 216.89 73.4229 179.784 135.65 178.371 100.251C125.821 115.501 45.0172 156.8 28.8188 205.78L24.11 200.214Z" fill="#0070C0" fill-rule="evenodd"/></g></g><path d="M995-13.4565C1016.05-85.3768 1070.16-133.942 1143.93-152.386L1140.79-186 1184-137.762 1147.62-76.7551 1146.24-111.46C1094.72-96.5086 1015.5-56.0194 999.617-7.99972L995-13.4565Z" fill="#0070C0" fill-rule="evenodd"/><text font-family="Times New Roman,Times New Roman_MSFontService,sans-serif" font-weight="700" font-size="83" transform="matrix(1 0 0 1 -214.122 775)">MODULE III: Context</text><text font-family="Times New Roman,Times New Roman_MSFontService,sans-serif" font-weight="700" font-size="83" transform="matrix(1 0 0 1 601.712 775)">-</text><text font-family="Times New Roman,Times New Roman_MSFontService,sans-serif" font-weight="700" font-size="83" transform="matrix(1 0 0 1 629.212 775)">Aware Ensemble Learning   </text><rect x="-624.5" y="688.5" width="2569" height="622" stroke="#F9CEB6" stroke-width="9.16667" stroke-miterlimit="8" stroke-dasharray="73.3333 27.5" fill="none"/><text font-family="Times New Roman,Times New Roman_MSFontService,sans-serif" font-weight="700" font-size="83" transform="matrix(1 0 0 1 -232.261 -1090)">MODULE I: Multi</text><text font-family="Times New Roman,Times New Roman_MSFontService,sans-serif" font-weight="700" font-size="83" transform="matrix(1 0 0 1 436.906 -1090)">-</text><text font-family="Times New Roman,Times New Roman_MSFontService,sans-serif" font-weight="700" font-size="83" transform="matrix(1 0 0 1 464.406 -1090)">Source Information Processing       </text></g></svg>